<svg xmlns="http://www.w3.org/2000/svg" width="322" height="78" viewBox="0 0 322 78">
    <g fill="none" fill-rule="evenodd">
        <path fill="#FFF" d="M5 2h309v72H5z"/>
        <path fill="#D61D22" d="M0 78V0h322v78H0zm265.181-20.757h12.053V31.992h-12.053v25.251zm28.123 0h12.053v-33.04c0-5.393-4.42-9.759-10.044-9.759h-30.132v11.641h28.123v31.158zm-45.8-17.12h12.052V14.445h-18.079v11.042h6.026v14.638zm-22.258 0h12.052V14.445H219.22v11.042h6.027v14.638zm-20.252 17.12c5.625 0 10.045-4.365 10.045-9.758V24.203c0-5.393-4.42-9.759-10.045-9.759H194.95v11.641h8.036v19.517h-16.07V14.444h-12.054v33.041c0 5.393 4.42 9.758 10.045 9.758h20.087zm-75.935 14.98h18.08V60.58h-6.027V31.992H129.06v40.23zm30.132-14.98c5.625 0 10.045-4.365 10.045-9.93v-22.94c0-5.563-4.42-9.929-10.045-9.929H129.06v11.641h28.124v19.517h-6.027v11.641h8.035zm-47.81-17.12h12.053V14.445h-18.08v11.042h6.027v14.638zm-38.33 5.479V26.085h16.07v19.517h-16.07zm18.08 11.641c5.624 0 10.043-4.365 10.043-9.758v-33.04H60.998v33.04c0 5.393 4.42 9.758 10.044 9.758H91.13zm-45.804 0c5.625 0 10.044-4.365 10.044-9.758V24.203c0-5.393-4.419-9.759-10.044-9.759H35.283v11.641h8.035v19.517h-16.07V14.444H15.196v33.041c0 5.393 4.419 9.758 10.043 9.758h20.088z"/>
    </g>
</svg>
