<svg xmlns="http://www.w3.org/2000/svg" width="71" height="14" viewBox="0 0 71 14">
    <g fill="#4D4D4D" fill-rule="evenodd">
        <path d="M4.668 13.125c-1.489 0-2.62-.402-3.394-1.206C.5 11.116.114 9.955.114 8.437c0-1.519.416-2.689 1.249-3.511.833-.838 2.018-1.258 3.555-1.258 1.053 0 2.05.231 2.99.694l-.926 2.33a9.546 9.546 0 0 0-1.117-.416 3.417 3.417 0 0 0-.947-.133c-.51 0-.906.2-1.185.597-.28.398-.42.96-.42 1.685 0 1.462.54 2.193 1.621 2.193.93 0 1.817-.27 2.66-.807v2.508c-.811.537-1.787.806-2.926.806M12.133 10.061c0 .56.299.839.895.839.387 0 .715-.121.984-.363.268-.242.403-.556.403-.943v-.71l-.726.033c-1.037.037-1.556.419-1.556 1.144m1.734-6.393c1.171 0 2.078.293 2.72.879.643.586.964 1.395.964 2.427v5.99h-2.185l-.604-1.21h-.065c-.435.532-.87.894-1.306 1.085-.435.19-1.002.286-1.701.286-.86 0-1.537-.26-2.032-.778-.494-.519-.741-1.25-.741-2.193 0-.943.331-1.657.995-2.14.664-.484 1.652-.755 2.963-.815l1.524-.048v-.129c0-.752-.371-1.129-1.113-1.129-.666 0-1.513.226-2.54.677l-.91-2.08c1.064-.548 2.408-.822 4.03-.822M25.21 3.668c.252 0 .513.022.782.065l.177.032-.282 2.975c-.258-.065-.616-.097-1.072-.097-.678 0-1.175.153-1.492.46-.317.306-.476.763-.476 1.37v4.49h-3.152V3.83h2.346l.492 1.459h.153a3.146 3.146 0 0 1 1.105-1.173c.472-.299.946-.448 1.419-.448M32.63 6.208c-.239-.264-.556-.395-.95-.395-.396 0-.714.12-.956.362s-.385.605-.427 1.089h2.708c-.01-.44-.135-.793-.375-1.056m-.778 6.917c-1.515 0-2.698-.403-3.547-1.21-.838-.816-1.257-1.984-1.257-3.502 0-1.519.39-2.684 1.169-3.495.779-.833 1.873-1.25 3.28-1.25 1.409 0 2.489.36 3.242 1.08.752.72 1.128 1.753 1.128 3.096v1.403h-5.635c.021.51.208.911.56 1.201.352.29.823.436 1.411.436.589 0 1.109-.052 1.56-.154a7.59 7.59 0 0 0 1.508-.54v2.266a5.517 5.517 0 0 1-1.548.532c-.516.091-1.14.137-1.87.137M42.837 6.208c-.24-.264-.557-.395-.952-.395-.395 0-.713.12-.955.362s-.384.605-.427 1.089h2.709c-.011-.44-.136-.793-.375-1.056m-.778 6.917c-1.516 0-2.698-.403-3.548-1.21-.838-.816-1.257-1.984-1.257-3.502 0-1.519.39-2.684 1.169-3.495.779-.833 1.873-1.25 3.281-1.25 1.408 0 2.488.36 3.24 1.08.753.72 1.13 1.753 1.13 3.096v1.403h-5.636c.022.51.208.911.56 1.201.353.29.823.436 1.411.436.589 0 1.109-.052 1.56-.154a7.589 7.589 0 0 0 1.508-.54v2.266a5.517 5.517 0 0 1-1.548.532c-.516.091-1.14.137-1.87.137M51.007 8.046v.443c0 .747.102 1.284.307 1.609.204.325.537.487 1 .487.37 0 .655-.19.854-.572.199-.382.298-.938.298-1.669 0-1.467-.395-2.2-1.185-2.2-.44 0-.763.152-.967.459-.205.306-.307.787-.307 1.443zm0-7.627v2.838c0 .301-.037.887-.113 1.757h.113c.58-.897 1.379-1.346 2.395-1.346 1.015 0 1.813.42 2.394 1.258.586.817.879 1.966.879 3.446 0 1.48-.295 2.643-.883 3.487-.589.844-1.407 1.266-2.455 1.266-.623 0-1.16-.137-1.612-.411-.205-.13-.444-.344-.718-.645h-.193l-.5.895h-2.459V.419h3.152zM58.489 12.964h3.152V3.829h-3.152v9.135zM58.807.496c.266-.228.688-.343 1.266-.343.578 0 1.003.117 1.278.35.274.235.41.586.41 1.053 0 .925-.558 1.387-1.676 1.387-1.118 0-1.677-.462-1.677-1.387 0-.478.133-.832.4-1.06zM70.702 10.553v2.41h-7.554v-1.797L66.93 6.24h-3.563V3.83h7.167v1.95l-3.62 4.773z"/>
    </g>
</svg>
