<svg xmlns="http://www.w3.org/2000/svg" width="112" height="92" viewBox="0 0 112 92">
    <g fill="none" fill-rule="evenodd">
        <path fill="#FFBBBD" d="M50.389 58.643h7.292v11.242h-7.292z"/>
        <path fill="#FFF" d="M63.19 22.266l-3.457 8.556c-.388.935-1.35 1.425-2.156 1.099-.806-.326-1.157-1.346-.787-2.288l3.457-8.556c.382-.945 1.35-1.445 2.163-1.117.813.329 1.162 1.361.78 2.306z"/>
        <path fill="#FFBBBD" d="M64.892 14.876c1.829.739 2.702 2.844 1.952 4.701-.75 1.858-2.842 2.766-4.67 2.027-1.83-.739-2.703-2.844-1.952-4.702.75-1.857 2.841-2.765 4.67-2.026z"/>
        <path fill="#FFF" d="M43.522 22.266l3.457 8.556c.388.935 1.349 1.425 2.156 1.099.806-.326 1.157-1.346.787-2.288l-3.457-8.556c-.382-.945-1.35-1.445-2.163-1.117-.813.329-1.162 1.361-.78 2.306z"/>
        <path fill="#FFBBBD" d="M41.82 14.876c-1.829.739-2.702 2.844-1.952 4.701.75 1.858 2.841 2.766 4.67 2.027 1.83-.739 2.703-2.844 1.952-4.702-.75-1.857-2.841-2.765-4.67-2.026z"/>
        <path fill="#B11014" d="M64.31 51.632v5.117c0 2.141-1.632 3.878-3.646 3.878H46.08c-2.014 0-3.646-1.737-3.646-3.878v-5.117l10.938-2.909 10.938 2.909z"/>
        <path fill="#D61D22" d="M80.359 53.346l-26.775-1.573a3.35 3.35 0 0 0-.425 0l-26.774 1.573a3.624 3.624 0 0 1-3.839-3.624V35.044a3.624 3.624 0 0 1 3.202-3.599l27.199-3.198c.282-.033.567-.033.849 0l27.199 3.198a3.625 3.625 0 0 1 3.203 3.605v14.677a3.628 3.628 0 0 1-3.839 3.619z"/>
        <path fill="#FFBBBD" d="M39.119 41.78a4.304 4.304 0 0 1-4.309 4.298 4.303 4.303 0 0 1-4.309-4.299 4.304 4.304 0 0 1 4.309-4.298c2.38 0 4.309 1.925 4.309 4.298zM76.906 41.78a4.303 4.303 0 0 1-4.31 4.298 4.303 4.303 0 0 1-4.308-4.299 4.304 4.304 0 0 1 4.308-4.298c2.38 0 4.31 1.925 4.31 4.298zM38.995 85.294c-.533 0-1.039-.227-1.384-.622l-9.648-10.96a2.608 2.608 0 0 1-.408-2.846 2.739 2.739 0 0 1 2.484-1.55h10.779c1.006 0 1.823.795 1.823 1.775 0 .981-.816 1.776-1.823 1.776H32.02l8.358 9.497a1.74 1.74 0 0 1 .27 1.897 1.827 1.827 0 0 1-1.654 1.033z"/>
        <path fill="#D61D22" d="M37.026 91.709c-.782-.001-1.479-.484-1.74-1.206a1.783 1.783 0 0 1 .581-2.006l2.874-2.267-2.316-2.814-2.875 2.268c-.51.43-1.22.553-1.85.322a1.815 1.815 0 0 1-1.18-1.431 1.788 1.788 0 0 1 .714-1.701l2.872-2.267c1.587-1.254 3.912-1.011 5.193.541l2.317 2.81a3.56 3.56 0 0 1-.554 5.077l-2.874 2.273a1.856 1.856 0 0 1-1.162.4z"/>
        <path fill="#FFBBBD" d="M76.498 77.16c-.197 0-.393-.033-.58-.098l-11.013-3.747a1.862 1.862 0 0 1-1.22-1.403 1.896 1.896 0 0 1 .58-1.78 1.808 1.808 0 0 1 1.8-.377l10.066 3.43 8.398-6.857a1.81 1.81 0 0 1 2.58.292 1.9 1.9 0 0 1-.286 2.635l-9.177 7.494a1.81 1.81 0 0 1-1.148.41z"/>
        <path fill="#D61D22" d="M87.733 68.563h-3.756c-2.075 0-3.757-1.54-3.757-3.44v-3.439c0-.456.198-.893.55-1.215a1.97 1.97 0 0 1 1.328-.504c1.037 0 1.879.77 1.879 1.72v3.439h3.756v-3.44c0-.95.841-1.719 1.88-1.719 1.036 0 1.877.77 1.877 1.72v3.439c0 1.898-1.682 3.439-3.757 3.439zM57.403 67.901c2.639.134 5.267.414 7.871.84.822.145 1.445.798 1.527 1.6.495 4.664.984 7.982 1.475 12.256.108.921-.532 1.77-1.475 1.954a71.72 71.72 0 0 1-26.194 0c-.943-.184-1.584-1.032-1.476-1.954.496-4.272.985-7.59 1.476-12.257.081-.801.704-1.453 1.526-1.598a70.66 70.66 0 0 1 7.896-.84"/>
        <g transform="scale(1 -1) rotate(-7 -286.935 -1.707)">
            <g fill="#FFBBBD" transform="translate(73.584 28.437)">
                <rect width="14.584" height="2.645" x=".508" y="5.787" rx="1.323" transform="rotate(-180 7.8 7.11)"/>
                <path d="M6.65 13.008V1.772a1.326 1.326 0 1 1 2.652 0v11.236a1.326 1.326 0 1 1-2.652 0z"/>
            </g>
            <ellipse cx="9.625" cy="3.566" fill="#FFBBBD" rx="2.983" ry="2.976" transform="rotate(-180 9.625 3.566)"/>
            <g fill="#FFBBBD" transform="translate(102.09 17.194)">
                <rect width="9.944" height="1.984" y="3.307" rx=".992"/>
                <path d="M6.09 1.083v7.223c0 .598-.473 1.083-1.056 1.083-.583 0-1.056-.485-1.056-1.083V1.083C3.978.485 4.45 0 5.034 0 5.617 0 6.09.485 6.09 1.083z"/>
            </g>
            <g fill="#FFBBBD" transform="translate(0 17.194)">
                <rect width="4.64" height="1.323" x=".254" y="1.691" rx=".661"/>
                <path d="M3.238.7v3.304a.663.663 0 1 1-1.326 0V.701a.663.663 0 1 1 1.326 0z"/>
            </g>
            <ellipse cx="18.23" cy="22.154" stroke="#FFBBBD" stroke-width="3.8" rx="2.983" ry="2.976"/>
            <ellipse cx="97.652" cy="42.172" stroke="#FFBBBD" stroke-width="3.8" rx="2.983" ry="2.976"/>
        </g>
    </g>
</svg>
